<?xml version="1.0" encoding="UTF-8"?>
<svg id="Layer_2" data-name="Layer 2" xmlns="http://www.w3.org/2000/svg" viewBox="0 0 1920 1080">
  <defs>
    <style>
      .cls-1 {
        letter-spacing: -.02em;
      }

      .cls-2 {
        letter-spacing: -.04em;
      }

      .cls-3 {
        fill: #feca0b;
      }

      .cls-4 {
        letter-spacing: 0em;
      }

      .cls-5 {
        fill: #f4c400;
      }

      .cls-6 {
        font-family: Corbel, Corbel;
        font-size: 128.57px;
      }

      .cls-6, .cls-7 {
        fill: #27397e;
      }

      .cls-7 {
        font-family: CorbelLight, Corbel;
        font-size: 97.96px;
      }

      .cls-8 {
        letter-spacing: .02em;
      }

      .cls-9 {
        letter-spacing: -.02em;
      }

      .cls-10 {
        letter-spacing: .02em;
      }
    </style>
  </defs>
  <text class="cls-6" transform="translate(94.56 729.79)"><tspan class="cls-8" x="0" y="0">Credit</tspan><tspan class="cls-1" x="341.57" y="0"> </tspan><tspan class="cls-8" x="364.86" y="0">Guarantee</tspan><tspan class="cls-9" x="949.81" y="0"> </tspan><tspan class="cls-10" x="973.1" y="0">Corporation</tspan></text>
  <text class="cls-7" transform="translate(96.98 827.21)"><tspan x="0" y="0">Papua New</tspan><tspan class="cls-2" x="443.4" y="0"> </tspan><tspan class="cls-4" x="458.66" y="0">Guinea</tspan></text>
  <path class="cls-5" d="m460.38,293.49l-48.71,44.65c-33.14-33.67-70.41-50.51-111.83-50.51-34.96,0-64.41,11.49-88.35,34.47-23.94,22.98-35.91,51.31-35.91,84.99,0,23.46,5.3,44.29,15.9,62.48,10.6,18.2,25.59,32.48,44.98,42.85,19.38,10.37,40.92,15.56,64.61,15.56,20.21,0,38.68-3.63,55.41-10.89,16.73-7.26,35.12-20.47,55.17-39.62l47.22,47.37c-27.03,25.37-52.57,42.96-76.61,52.76-24.04,9.81-51.49,14.71-82.33,14.71-56.88,0-103.43-17.34-139.66-52.02-36.23-34.68-54.35-79.12-54.35-133.33,0-35.07,8.25-66.25,24.75-93.51,16.5-27.26,40.13-49.18,70.89-65.77,30.76-16.58,63.88-24.87,99.37-24.87,30.18,0,59.23,6.13,87.18,18.39,27.94,12.26,52.02,29.69,72.26,52.29Z"/>
  <path class="cls-5" d="m1253.81,293.49l-48.7,44.65c-33.14-33.67-70.41-50.51-111.83-50.51-34.96,0-64.41,11.49-88.35,34.47-23.94,22.98-35.91,51.31-35.91,84.99,0,23.46,5.3,44.29,15.9,62.48,10.6,18.2,25.6,32.48,44.98,42.85,19.38,10.37,40.92,15.56,64.61,15.56,20.21,0,38.68-3.63,55.41-10.89,16.73-7.26,35.12-20.47,55.17-39.62l47.21,47.37c-27.03,25.37-52.57,42.96-76.6,52.76-24.05,9.81-51.49,14.71-82.33,14.71-56.88,0-103.43-17.34-139.66-52.02-36.23-34.68-54.35-79.12-54.35-133.33,0-35.07,8.25-66.25,24.74-93.51,16.5-27.26,40.13-49.18,70.89-65.77,30.76-16.58,63.88-24.87,99.36-24.87,30.18,0,59.24,6.13,87.18,18.39,27.94,12.26,52.02,29.69,72.26,52.29Z"/>
  <g>
    <path class="cls-3" d="m793.97,334.94l54.66-68.86s-78.44-83.41-233.19-44.01c0,0,3.55,33.01,15.62,44.01,0,0,10.65-.71,17.75-12.42,0,0-1.06-19.17,22.36-14.55l25.56-11.71-20.23,18.1s2.48,4.97-17.39,19.88c0,0-12.42,30.88,20.59,3.19,33.01-27.68,74.89,26.62,74.89,26.62l-17.39-4.26,10.29,14.55s18.1.71,46.5,29.46Z"/>
    <path class="cls-3" d="m763.09,403.09h80.57v149.78s-63.53,50.05-131.33,50.76c-67.79.71-142.68-19.52-183.5-77.02-40.82-57.5-36.56-135.94-36.56-135.94,0,0,6.03-103.64,84.12-145.88l-.88,5.6,21.47,11.08s-33.69-4.34-55.37,17.75l17.75.71s-14.55,1.06-29.1,29.46l11-4.61s-22.01,31.23-13.49,70.63l11-11.71-2.13,14.2,6.74-10.65s-5.32,18.81,1.06,50.4c0,0-22.01,69.21,30.88,79.5,0,0,19.88,0,30.88-7.1,0,0-59.27,13.13-56.79-57.5,0,0,18.1,35.49,45.43,22.72,0,0,30.59,54.28,69.45,62.62.63.13,1.26.26,1.89.37,39.75,6.94,81.63.19,98.67-15.78l-1.77-99.38Z"/>
    <path class="cls-3" d="m592.72,448.52s-18.46-43.66,4.61-99.74c0,0-92.28,76.31-4.61,99.74Z"/>
    <path class="cls-3" d="m550.49,398.65s10.82-28.93,25.64-44.19l-14.99,9.58-6.21-1.42s-6.56,18.1-4.43,36.03Z"/>
  </g>
</svg>